<?xml version="1.0" encoding="UTF-8"?>
<svg version="1.1" xmlns="http://www.w3.org/2000/svg" width="4725" height="4725">
<path d="M0 0 C2.130655 10.674906 4.14777549 21.34692844 5.6875 32.125 C5.80649658 32.95153076 5.92549316 33.77806152 6.0480957 34.62963867 C6.38862824 37.08407545 6.70093543 39.5401817 7 42 C7.14574463 43.14021606 7.14574463 43.14021606 7.29443359 44.3034668 C10.14711481 70.16965442 9.52033162 98.39284511 5 124 C4.69400879 125.74506836 4.69400879 125.74506836 4.38183594 127.52539062 C1.44524442 143.75999699 -2.46488339 159.4599987 -8 175 C-8.30131836 175.85964355 -8.60263672 176.71928711 -8.91308594 177.60498047 C-16.14859175 198.06729717 -25.43619593 217.62778775 -37 236 C-37.65355469 237.03898437 -38.30710937 238.07796875 -38.98046875 239.1484375 C-54.45808933 262.95525183 -73.41136095 285.52128216 -95 304 C-95.92425781 304.81339844 -96.84851562 305.62679688 -97.80078125 306.46484375 C-111.13998848 318.10768646 -125.80131145 327.95576125 -141 337 C-142.01320313 337.60642334 -142.01320313 337.60642334 -143.046875 338.22509766 C-185.7457324 363.53741373 -237.26427746 378.65346205 -287 378 C-287.4051984 419.61075895 -285.81942396 460.7576614 -273.84375 501 C-271.88037532 507.98088776 -272.68440211 514.02875635 -275.61328125 520.63671875 C-279.32385597 526.96037426 -284.85874021 530.64296098 -291.84765625 532.56640625 C-299.06218623 534.01978706 -305.78293292 532.65948631 -311.98828125 528.74609375 C-320.08097052 522.38631439 -322.10259514 512.96392616 -324.4375 503.375 C-324.7375293 502.15006836 -325.03755859 500.92513672 -325.34667969 499.66308594 C-328.62621129 485.8904532 -331.07304583 472.0242458 -333 458 C-333.16516113 456.80648926 -333.33032227 455.61297852 -333.50048828 454.38330078 C-336.95836212 428.03265721 -336.31110671 401.51955421 -336 375 C-336.79269287 374.9589917 -337.58538574 374.9179834 -338.40209961 374.87573242 C-346.34965841 374.37728946 -353.82997077 373.18341622 -361.5625 371.3125 C-362.69308838 371.04268311 -363.82367676 370.77286621 -364.98852539 370.49487305 C-407.64362515 360.14666571 -447.77827851 341.67446374 -482 314 C-483.01191406 313.19949219 -484.02382812 312.39898438 -485.06640625 311.57421875 C-501.40293957 298.4910491 -517.24982645 283.62587397 -530 267 C-531.01356488 265.71424583 -532.02795096 264.42913876 -533.04296875 263.14453125 C-564.51303517 223.01366363 -581.7462868 177.8183971 -593.8984375 128.70703125 C-594.11161621 127.8456958 -594.32479492 126.98436035 -594.54443359 126.09692383 C-595 124 -595 124 -595 122 C-590.37834549 121.30120769 -585.75593895 120.60768815 -581.1328125 119.91870117 C-579.56554677 119.68441422 -577.99848246 119.4487752 -576.43164062 119.21166992 C-516.58495799 110.16196376 -456.05735882 122.15426355 -406.609375 158.15625 C-402.32936353 161.34299508 -398.1461869 164.6415578 -394 168 C-393.3920459 168.49081055 -392.7840918 168.98162109 -392.15771484 169.48730469 C-378.49633578 180.61377663 -365.73655154 193.01276244 -355 207 C-353.99832869 208.26245946 -352.99564778 209.52411827 -351.9921875 210.78515625 C-337.95998176 228.57651385 -322.26844256 249.98670467 -316 272 C-315.34 272 -314.68 272 -314 272 C-313.77828125 270.78957031 -313.5565625 269.57914063 -313.328125 268.33203125 C-311.87372395 261.83156804 -309.31449846 255.81725673 -306.75 249.6875 C-306.48845123 249.06016968 -306.22690247 248.43283936 -305.95742798 247.78649902 C-290.76871684 211.48709553 -271.0035837 177.43314364 -246 147 C-245.55060059 146.4529541 -245.10120117 145.9059082 -244.63818359 145.34228516 C-234.8330919 133.47113299 -224.40538881 122.21833609 -213.52050781 111.33520508 C-211.99513287 109.80762584 -210.47799328 108.27216418 -208.9609375 106.73632812 C-202.63274386 100.37251733 -196.03529554 94.58753398 -189 89 C-187.97235492 88.13672487 -186.94893773 87.26833507 -185.93359375 86.390625 C-135.28441221 42.9543942 -73.55090674 17.60798977 -9.4609375 1.765625 C-8.73249634 1.58502029 -8.00405518 1.40441559 -7.25354004 1.21833801 C-2.24488864 0 -2.24488864 0 0 0 Z " fill="#258067" transform="translate(2153,1346)"/>
... (SVG truncated in patch for brevity) ...
</svg>
